<svg xmlns="http://www.w3.org/2000/svg" width="512" height="512" viewBox="0 0 512 512">
  <defs>
    <linearGradient id="bg" x1="80" y1="40" x2="440" y2="472" gradientUnits="userSpaceOnUse">
      <stop offset="0" stop-color="#2F6F68"/>
      <stop offset="0.58" stop-color="#245A55"/>
      <stop offset="1" stop-color="#C99344"/>
    </linearGradient>
    <linearGradient id="paper" x1="150" y1="118" x2="368" y2="388" gradientUnits="userSpaceOnUse">
      <stop offset="0" stop-color="#FFFFFF"/>
      <stop offset="1" stop-color="#EAF1EE"/>
    </linearGradient>
    <filter id="shadow" x="-20%" y="-20%" width="140%" height="140%">
      <feDropShadow dx="0" dy="16" stdDeviation="18" flood-color="#123633" flood-opacity="0.28"/>
    </filter>
  </defs>
  <rect width="512" height="512" rx="112" fill="url(#bg)"/>
  <circle cx="124" cy="104" r="86" fill="#FFFFFF" opacity="0.08"/>
  <circle cx="418" cy="402" r="126" fill="#123633" opacity="0.14"/>
  <g filter="url(#shadow)">
    <rect x="132" y="108" width="248" height="304" rx="42" fill="url(#paper)"/>
    <rect x="172" y="154" width="128" height="18" rx="9" fill="#2F6F68" opacity="0.42"/>
    <rect x="172" y="206" width="168" height="14" rx="7" fill="#2F6F68" opacity="0.22"/>
    <rect x="172" y="252" width="116" height="14" rx="7" fill="#2F6F68" opacity="0.22"/>
    <rect x="172" y="298" width="152" height="14" rx="7" fill="#2F6F68" opacity="0.22"/>
    <path d="M334 116v90c0 15 18 23 29 13l17-15v-63c0-18-14-32-32-32h-7c-4 0-7 3-7 7z" fill="#D6A14F"/>
  </g>
  <g fill="none" stroke="#2F6F68" stroke-linecap="round" stroke-linejoin="round" stroke-width="22">
    <path d="M198 361h116"/>
    <path d="M256 323v76"/>
  </g>
</svg>
